<svg xmlns="http://www.w3.org/2000/svg" width="118.209" height="118.209" viewBox="0 0 118.209 118.209">
  <g id="Сгруппировать_9935" data-name="Сгруппировать 9935" transform="translate(-244.564 -121.244)">
    <path id="Контур_17585" data-name="Контур 17585" d="M244.564,121.244H362.774V239.453H244.564Z" fill="#e5004b"/>
    <path id="Контур_17586" data-name="Контур 17586" d="M285.07,398.656l1.955-4.451q.767-.115,1.474-.17c.471-.037.926-.057,1.36-.057a11.57,11.57,0,0,1,2.593.271,7.537,7.537,0,0,1,2.155.849,7.932,7.932,0,0,1,1.784,1.46,12.12,12.12,0,0,1,1.517,2.1h4.307l-9.239-19.841H290l-9.239,19.841h4.31Zm6.435-14.625,3.572,7.879a5.975,5.975,0,0,0-1.985-.879,11.312,11.312,0,0,0-2.834-.311c-.528,0-1.106.027-1.728.084Zm22.137,14.625,9.155-19.841h-4.534l-6.008,13.746-5.981-13.746h-4.621l9.012,19.841h2.977Zm22.531.765a11.613,11.613,0,0,0,4.364-.809,10.376,10.376,0,0,0,5.794-5.654,11.163,11.163,0,0,0,0-8.474,10.357,10.357,0,0,0-2.309-3.388,10.654,10.654,0,0,0-3.485-2.239,12.179,12.179,0,0,0-8.728,0,10.619,10.619,0,0,0-3.485,2.239,10.306,10.306,0,0,0-2.309,3.388,10.591,10.591,0,0,0,5.794,14.127A11.625,11.625,0,0,0,336.173,399.421Zm0-3.686a6.823,6.823,0,0,1-2.706-.525,6.44,6.44,0,0,1-2.138-1.46,6.683,6.683,0,0,1-1.417-2.239,7.7,7.7,0,0,1-.511-2.834,7.383,7.383,0,0,1,.511-2.777,6.491,6.491,0,0,1,3.555-3.642,7.244,7.244,0,0,1,5.413,0,6.491,6.491,0,0,1,3.555,3.642,7.4,7.4,0,0,1,.511,2.777,7.654,7.654,0,0,1-.511,2.847,6.724,6.724,0,0,1-1.417,2.225,6.473,6.473,0,0,1-2.138,1.46A6.823,6.823,0,0,1,336.173,395.736Zm17.148-16.921v19.841H357.4V386.043l10.686,12.614h3.174V378.815h-4.083v12.614L356.5,378.815Z" transform="translate(-24.199 -171.094)" fill="#fff"/>
  </g>
</svg>
